HIERARCHY
ROOT hip
{
  OFFSET 0 90.174 2.4664
  CHANNELS 6 Xposition Yposition Zposition Zrotation Xrotation Yrotation
  JOINT abdomen
  {
    OFFSET 0 -1.186 -1.5018
    CHANNELS 6 Xposition Yposition Zposition Zrotation Xrotation Yrotation
    JOINT abdomen2
    {
      OFFSET 0 9.964 0.2134
      CHANNELS 6 Xposition Yposition Zposition Zrotation Xrotation Yrotation
      JOINT chest
      {
        OFFSET 0 13.134 -3.2573
        CHANNELS 6 Xposition Yposition Zposition Zrotation Xrotation Yrotation
        JOINT neck
        {
          OFFSET 0 20.686 -1.6905
          CHANNELS 6 Xposition Yposition Zposition Zrotation Xrotation Yrotation
          JOINT head
          {
            OFFSET 0 7.238 -0.1237
            CHANNELS 6 Xposition Yposition Zposition Zrotation Xrotation Yrotation
            End Site
            {
              OFFSET 0 0 0
            }
          }
        }
        JOINT lCollar
        {
          OFFSET 1.7069 20.075 5.0056
          CHANNELS 6 Xposition Yposition Zposition Zrotation Xrotation Yrotation
          JOINT lShldr
          {
            OFFSET 13.6458 -0.047 -4.849
            CHANNELS 6 Xposition Yposition Zposition Zrotation Xrotation Yrotation
            JOINT lForeArm
            {
              OFFSET 28.3255 -0.9759 2.2888
              CHANNELS 6 Xposition Yposition Zposition Zrotation Xrotation Yrotation
              JOINT lHand
              {
                OFFSET 22.1583 -0.53 10.8316
                CHANNELS 6 Xposition Yposition Zposition Zrotation Xrotation Yrotation
                JOINT lThumb1
                {
                  OFFSET 0.786 0.112 2.5817
                  CHANNELS 6 Xposition Yposition Zposition Zrotation Xrotation Yrotation
                  JOINT lThumb2
                  {
                    OFFSET 0.3601 -0.878 4.2331
                    CHANNELS 6 Xposition Yposition Zposition Zrotation Xrotation Yrotation
                    JOINT lThumb2_End
                    {
                      OFFSET 1.8127 -1.216 2.2227
                      CHANNELS 6 Xposition Yposition Zposition Zrotation Xrotation Yrotation
                      End Site
                      {
                        OFFSET 0.0181 -0.0122 0.0222
                      }
                    }
                  }
                }
                JOINT lCarpal1
                {
                  OFFSET 0.9571 1.114 1.7695
                  CHANNELS 6 Xposition Yposition Zposition Zrotation Xrotation Yrotation
                  JOINT lIndex1
                  {
                    OFFSET 4.1246 0.487 4.1451
                    CHANNELS 6 Xposition Yposition Zposition Zrotation Xrotation Yrotation
                    JOINT lIndex2
                    {
                      OFFSET 3.4052 -1.454 2.7682
                      CHANNELS 6 Xposition Yposition Zposition Zrotation Xrotation Yrotation
                      JOINT lIndex2_End
                      {
                        OFFSET 1.4531 -1.795 1.2713
                        CHANNELS 6 Xposition Yposition Zposition Zrotation Xrotation Yrotation
                        End Site
                        {
                          OFFSET 0.0145 -0.0179 0.0127
                        }
                      }
                    }
                  }
                  JOINT lMid1
                  {
                    OFFSET 5.6954 0.21 2.1184
                    CHANNELS 6 Xposition Yposition Zposition Zrotation Xrotation Yrotation
                    JOINT lMid2
                    {
                      OFFSET 3.9766 -1.54 2.3863
                      CHANNELS 6 Xposition Yposition Zposition Zrotation Xrotation Yrotation
                      JOINT lMid2_End
                      {
                        OFFSET 1.4042 -1.926 1.125
                        CHANNELS 6 Xposition Yposition Zposition Zrotation Xrotation Yrotation
                        End Site
                        {
                          OFFSET 0.014 -0.0193 0.0113
                        }
                      }
                    }
                  }
                }
                JOINT lCarpal2
                {
                  OFFSET 2.0956 0.66 -0.3894
                  CHANNELS 6 Xposition Yposition Zposition Zrotation Xrotation Yrotation
                  JOINT lRing1
                  {
                    OFFSET 5.0395 -0.09 2.4971
                    CHANNELS 6 Xposition Yposition Zposition Zrotation Xrotation Yrotation
                    JOINT lRing2
                    {
                      OFFSET 3.7921 -1.552 1.4806
                      CHANNELS 6 Xposition Yposition Zposition Zrotation Xrotation Yrotation
                      JOINT lRing2_End
                      {
                        OFFSET 1.4655 -1.808 0.9609
                        CHANNELS 6 Xposition Yposition Zposition Zrotation Xrotation Yrotation
                        End Site
                        {
                          OFFSET 0.0147 -0.0181 0.0096
                        }
                      }
                    }
                  }
                  JOINT lPinky1
                  {
                    OFFSET 4.9141 -1.269 0.3591
                    CHANNELS 6 Xposition Yposition Zposition Zrotation Xrotation Yrotation
                    JOINT lPinky2
                    {
                      OFFSET 3.1477 -1.685 0.8462
                      CHANNELS 6 Xposition Yposition Zposition Zrotation Xrotation Yrotation
                      JOINT lPinky2_End
                      {
                        OFFSET 0.8055 -1.585 0.7955
                        CHANNELS 6 Xposition Yposition Zposition Zrotation Xrotation Yrotation
                        End Site
                        {
                          OFFSET 0.0081 -0.0158 0.008
                        }
                      }
                    }
                  }
                }
              }
            }
          }
        }
        JOINT rCollar
        {
          OFFSET -1.7069 20.075 5.0056
          CHANNELS 6 Xposition Yposition Zposition Zrotation Xrotation Yrotation
          JOINT rShldr
          {
            OFFSET -13.6458 -0.047 -4.849
            CHANNELS 6 Xposition Yposition Zposition Zrotation Xrotation Yrotation
            JOINT rForeArm
            {
              OFFSET -28.3255 -0.9759 2.2888
              CHANNELS 6 Xposition Yposition Zposition Zrotation Xrotation Yrotation
              JOINT rHand
              {
                OFFSET -22.1583 -0.53 10.8316
                CHANNELS 6 Xposition Yposition Zposition Zrotation Xrotation Yrotation
                JOINT rThumb1
                {
                  OFFSET -0.786 0.112 2.5817
                  CHANNELS 6 Xposition Yposition Zposition Zrotation Xrotation Yrotation
                  JOINT rThumb2
                  {
                    OFFSET -0.3601 -0.878 4.2331
                    CHANNELS 6 Xposition Yposition Zposition Zrotation Xrotation Yrotation
                    JOINT rThumb2_End
                    {
                      OFFSET -1.8127 -1.216 2.2227
                      CHANNELS 6 Xposition Yposition Zposition Zrotation Xrotation Yrotation
                      End Site
                      {
                        OFFSET -0.0181 -0.0122 0.0222
                      }
                    }
                  }
                }
                JOINT rCarpal1
                {
                  OFFSET -0.9571 1.114 1.7695
                  CHANNELS 6 Xposition Yposition Zposition Zrotation Xrotation Yrotation
                  JOINT rIndex1
                  {
                    OFFSET -4.1246 0.487 4.1451
                    CHANNELS 6 Xposition Yposition Zposition Zrotation Xrotation Yrotation
                    JOINT rIndex2
                    {
                      OFFSET -3.4052 -1.454 2.7682
                      CHANNELS 6 Xposition Yposition Zposition Zrotation Xrotation Yrotation
                      JOINT rIndex2_End
                      {
                        OFFSET -1.4531 -1.795 1.2713
                        CHANNELS 6 Xposition Yposition Zposition Zrotation Xrotation Yrotation
                        End Site
                        {
                          OFFSET -0.0145 -0.018 0.0127
                        }
                      }
                    }
                  }
                  JOINT rMid1
                  {
                    OFFSET -5.6954 0.21 2.1184
                    CHANNELS 6 Xposition Yposition Zposition Zrotation Xrotation Yrotation
                    JOINT rMid2
                    {
                      OFFSET -3.9766 -1.54 2.3863
                      CHANNELS 6 Xposition Yposition Zposition Zrotation Xrotation Yrotation
                      JOINT rMid2_End
                      {
                        OFFSET -1.4042 -1.926 1.125
                        CHANNELS 6 Xposition Yposition Zposition Zrotation Xrotation Yrotation
                        End Site
                        {
                          OFFSET -0.014 -0.0193 0.0113
                        }
                      }
                    }
                  }
                }
                JOINT rCarpal2
                {
                  OFFSET -2.0956 0.66 -0.3894
                  CHANNELS 6 Xposition Yposition Zposition Zrotation Xrotation Yrotation
                  JOINT rRing1
                  {
                    OFFSET -5.0395 -0.09 2.4971
                    CHANNELS 6 Xposition Yposition Zposition Zrotation Xrotation Yrotation
                    JOINT rRing2
                    {
                      OFFSET -3.7921 -1.552 1.4806
                      CHANNELS 6 Xposition Yposition Zposition Zrotation Xrotation Yrotation
                      JOINT rRing2_End
                      {
                        OFFSET -1.4655 -1.808 0.9609
                        CHANNELS 6 Xposition Yposition Zposition Zrotation Xrotation Yrotation
                        End Site
                        {
                          OFFSET -0.0147 -0.0181 0.0096
                        }
                      }
                    }
                  }
                  JOINT rPinky1
                  {
                    OFFSET -4.9141 -1.269 0.3592
                    CHANNELS 6 Xposition Yposition Zposition Zrotation Xrotation Yrotation
                    JOINT rPinky2
                    {
                      OFFSET -3.1477 -1.685 0.8462
                      CHANNELS 6 Xposition Yposition Zposition Zrotation Xrotation Yrotation
                      JOINT rPinky2_End
                      {
                        OFFSET -0.8055 -1.585 0.7955
                        CHANNELS 6 Xposition Yposition Zposition Zrotation Xrotation Yrotation
                        End Site
                        {
                          OFFSET -0.0081 -0.0158 0.008
                        }
                      }
                    }
                  }
                }
              }
            }
          }
        }
      }
    }
  }
  JOINT lThigh
  {
    OFFSET 8.367 -8.2066 0.5982
    CHANNELS 6 Xposition Yposition Zposition Zrotation Xrotation Yrotation
    JOINT lShin
    {
      OFFSET 2.1923 -43.463 -0.4932
      CHANNELS 6 Xposition Yposition Zposition Zrotation Xrotation Yrotation
      JOINT lFoot
      {
        OFFSET 0.7333 -45.8593 -2.6451
        CHANNELS 6 Xposition Yposition Zposition Zrotation Xrotation Yrotation
        End Site
        {
          OFFSET 2.6618 -4.2699 12.3931
        }
      }
    }
  }
  JOINT rThigh
  {
    OFFSET -8.367 -8.2066 0.5982
    CHANNELS 6 Xposition Yposition Zposition Zrotation Xrotation Yrotation
    JOINT rShin
    {
      OFFSET -2.1923 -43.463 -0.4931
      CHANNELS 6 Xposition Yposition Zposition Zrotation Xrotation Yrotation
      JOINT rFoot
      {
        OFFSET -0.7333 -45.8593 -2.6451
        CHANNELS 6 Xposition Yposition Zposition Zrotation Xrotation Yrotation
        End Site
        {
          OFFSET -2.6618 -4.2699 12.3931
        }
      }
    }
  }
}
MOTION
Frames:	4
Frame Time:	0.0333333
0 90.174 2.4664 0 0 -0 0 -1.186 -1.5018 0 0 -0 0 9.964 0.2134 0 0 -0 0 13.134 -3.2573 0 0 -0 0 20.686 -1.6905 0 0 -0 0 7.238 -0.1237 0 0 -0 1.7069 20.075 5.0056 0 0 -0 13.6458 -0.047 -4.849 1.66051 0.0835086 5.75766 28.3255 -0.9759 2.2888 -0.0175111 0.895433 15.7816 22.1583 -0.53 10.8316 7.95139e-016 -1.98785e-016 -0 0.786 0.112 2.5817 5.46658e-016 -3.97569e-016 -0 0.3601 -0.878 4.2331 5.96354e-016 0 -0 1.8127 -1.216 2.2227 3.97569e-016 1.98785e-016 9.54166e-015 0.9571 1.114 1.7695 1.49089e-016 -3.97569e-016 -0 4.1246 0.487 4.1451 6.4605e-016 0 3.18055e-015 3.4052 -1.454 2.7682 5.96354e-016 0 3.18055e-015 1.4531 -1.795 1.2713 8.94531e-016 -1.98785e-016 6.36111e-015 5.6954 0.21 2.1184 6.4605e-016 0 3.18055e-015 3.9766 -1.54 2.3863 5.96354e-016 0 3.18055e-015 1.4042 -1.926 1.125 8.94531e-016 -1.98785e-016 6.36111e-015 2.0956 0.66 -0.3894 1.49089e-016 -3.97569e-016 -0 5.0395 -0.09 2.4971 6.4605e-016 0 3.18055e-015 3.7921 -1.552 1.4806 5.96354e-016 0 3.18055e-015 1.4655 -1.808 0.9609 8.94531e-016 -1.98785e-016 6.36111e-015 4.9141 -1.269 0.3591 6.4605e-016 0 3.18055e-015 3.1477 -1.685 0.8462 5.96354e-016 0 3.18055e-015 0.8055 -1.585 0.7955 8.94531e-016 -1.98785e-016 6.36111e-015 -1.7069 20.075 5.0056 0 0 -0 -13.6458 -0.047 -4.849 -1.4496 0.0636048 -5.0245 -28.3255 -0.9759 2.2888 -1.74811 1.20616 -16.8394 -22.1583 -0.53 10.8316 -1.19271e-015 1.98785e-016 -3.18055e-015 -0.786 0.112 2.5817 -3.97569e-016 1.98785e-016 -3.18055e-015 -0.3601 -0.878 4.2331 -2.98177e-016 1.98785e-016 -3.18055e-015 -1.8127 -1.216 2.2227 -2.98177e-016 3.97569e-016 -0 -0.9571 1.114 1.7695 4.96962e-016 0 -6.36111e-015 -4.1246 0.487 4.1451 -9.93923e-017 3.97569e-016 -0 -3.4052 -1.454 2.7682 -8.94531e-016 5.96354e-016 -0 -1.4531 -1.795 1.2713 -3.97569e-016 3.97569e-016 -0 -5.6954 0.21 2.1184 -9.93923e-017 3.97569e-016 -0 -3.9766 -1.54 2.3863 -8.94531e-016 5.96354e-016 -0 -1.4042 -1.926 1.125 -3.97569e-016 3.97569e-016 -0 -2.0956 0.66 -0.3894 4.96962e-016 0 -6.36111e-015 -5.0395 -0.09 2.4971 -9.93923e-017 3.97569e-016 -0 -3.7921 -1.552 1.4806 -8.94531e-016 5.96354e-016 -0 -1.4655 -1.808 0.9609 -3.97569e-016 3.97569e-016 -0 -4.9141 -1.269 0.3592 -9.93923e-017 3.97569e-016 -0 -3.1477 -1.685 0.8462 -8.94531e-016 5.96354e-016 -0 -0.8055 -1.585 0.7955 -3.97569e-016 3.97569e-016 -0 8.367 -8.2066 0.5982 -4.66115 -1.03232 0.120763 2.1923 -43.463 -0.4932 0.00990601 1.55097 0.177175 0.7333 -45.8593 -2.6451 4.65196 -0.54114 -0.255042 -8.367 -8.2066 0.5982 4.66115 -1.03222 -0.120763 -2.1923 -43.463 -0.4931 -0.00990459 1.5509 -0.177176 -0.7333 -45.8593 -2.6451 -4.65196 -0.541171 0.255041 
21.2697 3.40363 -10.1984 -90.4091 -89.739 89.3299 -7.10543e-015 -1.186 -1.5018 -2.97848e-007 -1.09878e-009 -1.84663e-007 0 9.964 0.2134 3.91044e-008 6.25393e-012 -3.63588e-008 0 13.134 -3.2573 -7.14558e-009 5.33885e-011 3.05865e-008 -3.55271e-015 20.686 -1.6905 1.9987 -0.0820621 0.00286647 -3.55271e-015 7.238 -0.1237 19.9982 -1.9665e-005 3.93166e-006 1.7069 20.075 5.0056 -25.6604 -4.44001 8.96901 13.6458 -0.047 -4.849 -42.533 -26.9862 -25.0609 28.3255 -0.9759 2.2888 -1.71484 -1.74831 -102.207 22.1583 -0.53 10.8316 -9.30961 3.66944 0.128658 0.786 0.112 2.5817 -4.06323e-006 1.08053e-006 1.65751e-006 0.3601 -0.878 4.2331 -4.57221e-008 -3.36074e-006 5.14376e-006 1.8127 -1.216 2.2227 -3.69039e-006 4.37564e-007 1.23742e-006 0.9571 1.114 1.7695 -3.18055e-015 3.18055e-015 3.18055e-015 4.1246 0.487 4.1451 -4.06323e-006 1.08053e-006 1.65751e-006 3.4052 -1.454 2.7682 -4.57221e-008 -3.36074e-006 5.14376e-006 1.4531 -1.795 1.2713 -3.69039e-006 4.37564e-007 1.23742e-006 5.6954 0.21 2.1184 -4.06323e-006 1.08053e-006 1.65751e-006 3.9766 -1.54 2.3863 -4.57221e-008 -3.36074e-006 5.14376e-006 1.4042 -1.926 1.125 -3.69039e-006 4.37564e-007 1.23742e-006 2.0956 0.66 -0.3894 -3.18055e-015 3.18055e-015 3.18055e-015 5.0395 -0.09 2.4971 -4.06323e-006 1.08053e-006 1.65751e-006 3.7921 -1.552 1.4806 -4.57221e-008 -3.36074e-006 5.14376e-006 1.4655 -1.808 0.9609 -3.69039e-006 4.37564e-007 1.23742e-006 4.9141 -1.269 0.3591 -4.06323e-006 1.08053e-006 1.65751e-006 3.1477 -1.685 0.8462 -4.57221e-008 -3.36074e-006 5.14376e-006 0.8055 -1.585 0.7955 -3.69039e-006 4.37564e-007 1.23742e-006 -1.7069 20.075 5.0056 -2.80319e-008 -0.0821822 -1.89405e-008 -13.6458 -0.047 -4.849 73.8325 -31.9416 64.6681 -28.3255 -0.9759 2.2888 2.11668 -3.26576 104.138 -22.1583 -0.53 10.8316 0.926294 0.371858 0.0217092 -0.786 0.112 2.5817 2.0528e-006 -2.16651e-006 -9.28793e-007 -0.3601 -0.878 4.2331 -1.59028e-015 -4.96962e-016 1.98785e-015 -1.8127 -1.216 2.2227 -3.18055e-015 -1.09332e-015 2.78299e-015 -0.9571 1.114 1.7695 -1.59028e-015 -5.26779e-015 -7.95139e-016 -4.1246 0.487 4.1451 2.0528e-006 -2.16651e-006 -9.28793e-007 -3.4052 -1.454 2.7682 -6.36111e-015 4.96962e-015 2.78299e-015 -1.4531 -1.795 1.2713 -4.77083e-015 7.55382e-015 3.97569e-016 -5.6954 0.21 2.1184 2.0528e-006 -2.16651e-006 -9.28793e-007 -3.9766 -1.54 2.3863 -6.36111e-015 4.96962e-015 2.78299e-015 -1.4042 -1.926 1.125 -4.77083e-015 7.55382e-015 3.97569e-016 -2.0956 0.66 -0.3894 -1.59028e-015 -5.26779e-015 -7.95139e-016 -5.0395 -0.09 2.4971 2.0528e-006 -2.16651e-006 -9.28793e-007 -3.7921 -1.552 1.4806 -6.36111e-015 4.96962e-015 2.78299e-015 -1.4655 -1.808 0.9609 -4.77083e-015 7.55382e-015 3.97569e-016 -4.9141 -1.269 0.3592 2.0528e-006 -2.16651e-006 -9.28793e-007 -3.1477 -1.685 0.8462 -6.36111e-015 4.96962e-015 2.78299e-015 -0.8055 -1.585 0.7955 -4.77083e-015 7.55382e-015 3.97569e-016 8.367 -8.2066 0.5982 20.6982 -29.0692 13.0061 2.1923 -43.463 -0.4932 0.365694 38.6504 3.39365 0.7333 -45.8593 -2.6451 9.91231 65.606 -4.34302 -8.367 -8.2066 0.5982 -21.8554 -33.7063 -15.5888 -2.1923 -43.463 -0.4931 -0.325115 45.4877 -2.60623 -0.7333 -45.8593 -2.6451 -6.53913 39.8956 0.800226 
21.2697 3.40363 -10.1984 -90.4091 -89.739 89.3299 -7.10543e-015 -1.186 -1.5018 -2.97848e-007 -1.09878e-009 -1.84663e-007 0 9.964 0.2134 3.91044e-008 6.25393e-012 -3.63588e-008 0 13.134 -3.2573 -7.14558e-009 5.33885e-011 3.05865e-008 -3.55271e-015 20.686 -1.6905 1.9987 -0.0820621 0.00286647 -3.55271e-015 7.238 -0.1237 19.1806 1.41679e-005 -2.28661e-006 1.7069 20.075 5.0056 -25.6604 -4.44001 8.96901 13.6458 -0.047 -4.849 -42.2859 -27.2583 -25.2569 28.3255 -0.9759 2.2888 -1.71485 -1.74828 -102.207 22.1583 -0.53 10.8316 -9.30961 3.66943 0.12865 0.786 0.112 2.5817 -3.75675e-007 6.42444e-007 4.18355e-007 0.3601 -0.878 4.2331 6.36111e-015 6.36111e-015 -3.18055e-015 1.8127 -1.216 2.2227 3.75675e-007 -6.42444e-007 -4.18355e-007 0.9571 1.114 1.7695 -6.36111e-015 3.18055e-015 -9.54166e-015 4.1246 0.487 4.1451 -3.75675e-007 6.42444e-007 4.18355e-007 3.4052 -1.454 2.7682 3.53113e-031 3.18055e-015 -6.36111e-015 1.4531 -1.795 1.2713 3.75675e-007 -6.42444e-007 -4.18355e-007 5.6954 0.21 2.1184 -3.75675e-007 6.42444e-007 4.18355e-007 3.9766 -1.54 2.3863 3.53113e-031 3.18055e-015 -6.36111e-015 1.4042 -1.926 1.125 3.75675e-007 -6.42444e-007 -4.18355e-007 2.0956 0.66 -0.3894 -6.36111e-015 3.18055e-015 -9.54166e-015 5.0395 -0.09 2.4971 -3.75675e-007 6.42444e-007 4.18355e-007 3.7921 -1.552 1.4806 3.53113e-031 3.18055e-015 -6.36111e-015 1.4655 -1.808 0.9609 3.75675e-007 -6.42444e-007 -4.18355e-007 4.9141 -1.269 0.3591 -3.75675e-007 6.42444e-007 4.18355e-007 3.1477 -1.685 0.8462 3.53113e-031 3.18055e-015 -6.36111e-015 0.8055 -1.585 0.7955 3.75675e-007 -6.42444e-007 -4.18355e-007 -1.7069 20.075 5.0056 -2.80319e-008 -0.0821822 -1.89405e-008 -13.6458 -0.047 -4.849 73.4295 -31.7025 63.7614 -28.3255 -0.9759 2.2888 2.11667 -3.26575 104.138 -22.1583 -0.53 10.8316 0.926281 0.371848 0.021705 -0.786 0.112 2.5817 1.65521e-032 -1.19271e-015 7.95139e-016 -0.3601 -0.878 4.2331 3.18055e-015 5.36719e-015 2.38542e-015 -1.8127 -1.216 2.2227 -6.9519e-031 8.34896e-015 4.77083e-015 -0.9571 1.114 1.7695 -3.31043e-032 -1.19271e-015 -1.59028e-015 -4.1246 0.487 4.1451 4.77083e-015 -1.66979e-014 4.77083e-015 -3.4052 -1.454 2.7682 1.59028e-015 -7.95139e-016 2.38542e-015 -1.4531 -1.795 1.2713 1.59028e-015 -1.49089e-015 -0 -5.6954 0.21 2.1184 4.77083e-015 -1.66979e-014 4.77083e-015 -3.9766 -1.54 2.3863 1.59028e-015 -7.95139e-016 2.38542e-015 -1.4042 -1.926 1.125 1.59028e-015 -1.49089e-015 -0 -2.0956 0.66 -0.3894 -3.31043e-032 -1.19271e-015 -1.59028e-015 -5.0395 -0.09 2.4971 4.77083e-015 -1.66979e-014 4.77083e-015 -3.7921 -1.552 1.4806 1.59028e-015 -7.95139e-016 2.38542e-015 -1.4655 -1.808 0.9609 1.59028e-015 -1.49089e-015 -0 -4.9141 -1.269 0.3592 4.77083e-015 -1.66979e-014 4.77083e-015 -3.1477 -1.685 0.8462 1.59028e-015 -7.95139e-016 2.38542e-015 -0.8055 -1.585 0.7955 1.59028e-015 -1.49089e-015 -0 8.367 -8.2066 0.5982 20.6982 -29.0692 13.0061 2.1923 -43.463 -0.4932 0.365694 38.6504 3.39365 0.7333 -45.8593 -2.6451 9.91231 65.606 -4.34302 -8.367 -8.2066 0.5982 -21.8554 -33.7063 -15.5888 -2.1923 -43.463 -0.4931 -0.325115 45.4877 -2.60623 -0.7333 -45.8593 -2.6451 -6.53913 39.8956 0.800226 
21.2697 3.40363 -10.1984 -90.4091 -89.739 89.3299 -7.10543e-015 -1.186 -1.5018 -2.97848e-007 -1.09878e-009 -1.84663e-007 0 9.964 0.2134 3.91044e-008 6.25393e-012 -3.63588e-008 0 13.134 -3.2573 -7.14558e-009 5.33885e-011 3.05865e-008 -3.55271e-015 20.686 -1.6905 1.9987 -0.0820621 0.00286647 -3.55271e-015 7.238 -0.1237 18.3611 -5.42015e-006 -8.83487e-009 1.7069 20.075 5.0056 -25.6604 -4.44001 8.96901 13.6458 -0.047 -4.849 -42.039 -27.5313 -25.4521 28.3255 -0.9759 2.2888 -1.71484 -1.74829 -102.207 22.1583 -0.53 10.8316 -9.30961 3.66943 0.128651 0.786 0.112 2.5817 -3.18055e-015 3.18055e-015 -3.18055e-015 0.3601 -0.878 4.2331 3.78508e-007 -6.41906e-007 -4.16608e-007 1.8127 -1.216 2.2227 3.78508e-007 -6.41906e-007 -4.16608e-007 0.9571 1.114 1.7695 -3.18055e-015 3.18055e-015 -3.18055e-015 4.1246 0.487 4.1451 0 0 -0 3.4052 -1.454 2.7682 3.78508e-007 -6.41906e-007 -4.16608e-007 1.4531 -1.795 1.2713 3.78508e-007 -6.41906e-007 -4.16608e-007 5.6954 0.21 2.1184 0 0 -0 3.9766 -1.54 2.3863 3.78508e-007 -6.41906e-007 -4.16608e-007 1.4042 -1.926 1.125 3.78508e-007 -6.41906e-007 -4.16608e-007 2.0956 0.66 -0.3894 -3.18055e-015 3.18055e-015 -3.18055e-015 5.0395 -0.09 2.4971 0 0 -0 3.7921 -1.552 1.4806 3.78508e-007 -6.41906e-007 -4.16608e-007 1.4655 -1.808 0.9609 3.78508e-007 -6.41906e-007 -4.16608e-007 4.9141 -1.269 0.3591 0 0 -0 3.1477 -1.685 0.8462 3.78508e-007 -6.41906e-007 -4.16608e-007 0.8055 -1.585 0.7955 3.78508e-007 -6.41906e-007 -4.16608e-007 -1.7069 20.075 5.0056 -2.80319e-008 -0.0821822 -1.89405e-008 -13.6458 -0.047 -4.849 73.0314 -31.4577 62.8576 -28.3255 -0.9759 2.2888 2.11668 -3.26576 104.138 -22.1583 -0.53 10.8316 0.926278 0.371844 0.0217136 -0.786 0.112 2.5817 3.18055e-015 -3.47873e-015 7.95139e-016 -0.3601 -0.878 4.2331 -4.13804e-031 -9.93923e-015 -2.38542e-015 -1.8127 -1.216 2.2227 -8.55194e-032 -6.16232e-015 -7.95139e-016 -0.9571 1.114 1.7695 1.59028e-015 -3.57812e-015 1.59028e-015 -4.1246 0.487 4.1451 -1.59028e-015 -3.23025e-014 7.15625e-015 -3.4052 -1.454 2.7682 1.59028e-015 -3.47873e-015 7.95139e-016 -1.4531 -1.795 1.2713 -9.37955e-032 -3.37934e-015 -1.59028e-015 -5.6954 0.21 2.1184 -1.59028e-015 -3.23025e-014 7.15625e-015 -3.9766 -1.54 2.3863 1.59028e-015 -3.47873e-015 7.95139e-016 -1.4042 -1.926 1.125 -9.37955e-032 -3.37934e-015 -1.59028e-015 -2.0956 0.66 -0.3894 1.59028e-015 -3.57812e-015 1.59028e-015 -5.0395 -0.09 2.4971 -1.59028e-015 -3.23025e-014 7.15625e-015 -3.7921 -1.552 1.4806 1.59028e-015 -3.47873e-015 7.95139e-016 -1.4655 -1.808 0.9609 -9.37955e-032 -3.37934e-015 -1.59028e-015 -4.9141 -1.269 0.3592 -1.59028e-015 -3.23025e-014 7.15625e-015 -3.1477 -1.685 0.8462 1.59028e-015 -3.47873e-015 7.95139e-016 -0.8055 -1.585 0.7955 -9.37955e-032 -3.37934e-015 -1.59028e-015 8.367 -8.2066 0.5982 20.6982 -29.0692 13.0061 2.1923 -43.463 -0.4932 0.365728 38.6504 3.39363 0.7333 -45.8593 -2.6451 9.9123 65.606 -4.34302 -8.367 -8.2066 0.5982 -21.8552 -33.7066 -15.5887 -2.1923 -43.463 -0.4931 -0.325302 45.4879 -2.60624 -0.7333 -45.8593 -2.6451 -6.53913 39.8956 0.800218 
